# xmcd
#
# Track frame offsets:
#	150
#	16466
#	28621
#	40679
#
# Disc length: 689 seconds
#
# Revision: 0
# Processed by: cddbd v1.5.1PL0 Copyright (c) Steve Scherf et al.
# Submitted via: audiograbber 1.83.01
#
DISCID=2502af04
DTITLE=Robbie Klay - RA TA TA
DYEAR=2003
DGENRE=Folk-Rock
TTITLE0=Co-Co
TTITLE1=Ra Ta Ta
TTITLE2=Iko, Iko
TTITLE3=Die Kop Song
EXTD=
EXTT0=
EXTT1=
EXTT2=
EXTT3=
PLAYORDER=
